<svg xmlns="http://www.w3.org/2000/svg" version="1.1" xmlns:xlink="http://www.w3.org/1999/xlink" xmlns:svgjs="http://svgjs.dev/svgjs" width="2000" height="252" viewBox="0 0 2000 252"><g transform="matrix(1,0,0,1,-1.2121212121212466,0.9492145859367866)"><svg viewBox="0 0 396 50" data-background-color="#ffffff" preserveAspectRatio="xMidYMid meet" height="252" width="2000" xmlns="http://www.w3.org/2000/svg" xmlns:xlink="http://www.w3.org/1999/xlink"><g id="tight-bounds" transform="matrix(1,0,0,1,0.2400000000000091,-0.18833622736840994)"><svg viewBox="0 0 395.52 50.37667245473681" height="50.37667245473681" width="395.52"><g><svg viewBox="0 0 466.52148931144495 59.42000470302049" height="50.37667245473681" width="395.52"><g transform="matrix(1,0,0,1,0,1.0462277721467714)"><svg viewBox="0 0 395.52 57.327549158726946" height="57.327549158726946" width="395.52"><g id="textblocktransform"><svg viewBox="0 0 395.52 57.327549158726946" height="57.327549158726946" width="395.52" id="textblock"><g><svg viewBox="0 0 395.52 57.327549158726946" height="57.327549158726946" width="395.52"><g transform="matrix(1,0,0,1,0,0)"><svg width="395.52" viewBox="-0.55 -35.75 247.44 35.75" height="57.327549158726946" data-palette-color="#9210a0"><g class="wordmark-text-0" data-fill-palette-color="primary" id="text-0"><path d="M35.6 0L35.6-22 26.15-2.9 21.5-2.9 12.1-22 12.1 0-0.55 0-0.55-2.15 4.3-2.15 4.3-34.95 14.85-34.95 23.85-15.75 32.9-34.95 43.4-34.95 43.4-2.15 48.25-2.15 48.25 0 35.6 0ZM77.85-2.15L89-2.15 89 0 47.7 0 47.7-2.15 58.85-2.15Q54.75-4.5 52.37-8.6 50-12.7 50-17.7L50-17.7Q50-25.4 55.3-30.58 60.6-35.75 68.35-35.75 76.1-35.75 81.4-30.58 86.7-25.4 86.7-17.7L86.7-17.7Q86.7-12.7 84.3-8.6 81.9-4.5 77.85-2.15L77.85-2.15ZM78.75-17.68Q78.75-22.35 75.75-25.65 72.75-28.95 68.37-28.95 64-28.95 61-25.65 58-22.35 58-17.68 58-13 61-9.73 64-6.45 68.37-6.45 72.75-6.45 75.75-9.73 78.75-13 78.75-17.68ZM110.34-2.15L123.4-2.15 123.4 0 89 0 89-2.15 102-2.15 88.84-34.95 97.3-34.95 106.2-12.7 115.09-34.95 123.55-34.95 110.34-2.15ZM135.49-2.15L139.79-2.15 139.79 0 123.39 0 123.39-2.15 127.69-2.15 127.69-34.95 135.49-34.95 135.49-2.15ZM139.24-2.15L144.09-2.15 144.09-34.95 169.29-34.95 169.29-28 151.89-28 151.89-20.8 167.54-20.8 167.54-14.15 151.89-14.15 151.89-6.9 169.84-6.9 169.84-2.15 174.69-2.15 174.69 0 139.24 0 139.24-2.15ZM199.79-2.15L211.59-2.15 211.59 0 171.94 0 171.94-2.15 176.79-2.15 176.79-34.95 189.14-34.95Q198.49-34.95 203.49-30.38 208.49-25.8 208.49-17.5L208.49-17.5Q208.49-6.3 199.79-2.15L199.79-2.15ZM189.54-6.9Q194.89-6.9 197.76-9.6 200.64-12.3 200.64-17.45 200.64-22.6 197.76-25.38 194.89-28.15 188.94-28.15L188.94-28.15 184.59-28.15 184.59-6.9 189.54-6.9ZM239.89-2.15L246.89-2.15 246.89 0 211.03 0 211.03-2.15 215.89-2.15 215.89-34.95 229.49-34.95Q233.04-34.95 235.61-34.1 238.19-33.25 239.49-31.8L239.49-31.8Q241.84-29.1 241.84-25.7L241.84-25.7Q241.84-21.6 239.19-19.6L239.19-19.6Q238.29-18.9 237.94-18.73 237.59-18.55 236.69-18.15L236.69-18.15Q239.94-17.45 241.86-15.23 243.79-13 243.79-9.7L243.79-9.7Q243.79-4.75 239.89-2.15L239.89-2.15ZM223.69-14.65L223.69-6.6 229.03-6.6Q232.39-6.6 234.06-7.43 235.74-8.25 235.74-10.68 235.74-13.1 233.96-13.88 232.19-14.65 228.28-14.65L228.28-14.65 223.69-14.65ZM223.69-28.35L223.69-20.8 227.39-20.8Q230.64-20.8 232.21-21.5 233.79-22.2 233.79-24.53 233.79-26.85 232.34-27.6 230.89-28.35 227.44-28.35L227.44-28.35 223.69-28.35Z" fill="#9210a0" data-fill-palette-color="primary"></path></g></svg></g></svg></g></svg></g></svg></g><g transform="matrix(1,0,0,1,409.0536584951956,0)"><svg viewBox="0 0 57.467830816249375 59.42000470302049" height="59.42000470302049" width="57.467830816249375"><g><svg xmlns="http://www.w3.org/2000/svg" xmlns:xlink="http://www.w3.org/1999/xlink" version="1.1" x="0" y="0" viewBox="7.487339512935998 6.066 84.025660487064 86.88" enable-background="new 0 0 100 100" xml:space="preserve" height="59.42000470302049" width="57.467830816249375" class="icon-icon-0" data-fill-palette-color="accent" id="icon-0"><rect x="34.571" y="16.321" fill="#9210a0" width="5.716" height="5.716" data-fill-palette-color="accent"></rect><rect x="34.571" y="28.368" fill="#9210a0" width="5.716" height="5.716" data-fill-palette-color="accent"></rect><rect x="34.571" y="40.416" fill="#9210a0" width="5.716" height="5.716" data-fill-palette-color="accent"></rect><rect x="34.571" y="52.464" fill="#9210a0" width="5.716" height="5.716" data-fill-palette-color="accent"></rect><rect x="80.349" y="16.321" fill="#9210a0" width="5.716" height="5.716" data-fill-palette-color="accent"></rect><rect x="80.349" y="28.368" fill="#9210a0" width="5.716" height="5.716" data-fill-palette-color="accent"></rect><rect x="80.349" y="40.416" fill="#9210a0" width="5.716" height="5.716" data-fill-palette-color="accent"></rect><rect x="80.349" y="52.464" fill="#9210a0" width="5.716" height="5.716" data-fill-palette-color="accent"></rect><path fill="#9210a0" d="M52.324 50.356c-0.188 0-0.375-0.048-0.546-0.142-0.354-0.199-0.572-0.572-0.572-0.975V26.271c0-0.404 0.218-0.777 0.572-0.975 0.354-0.194 0.786-0.19 1.13 0.024l18.704 11.483c0.332 0.203 0.532 0.563 0.532 0.951 0 0.389-0.201 0.749-0.532 0.951L52.909 50.19C52.73 50.301 52.527 50.356 52.324 50.356zM53.442 28.268v18.974l15.45-9.488L53.442 28.268z" data-fill-palette-color="accent"></path><path fill="#9210a0" d="M81.978 8.301c4.025 0 7.3 3.275 7.3 7.3V59.3c0 4.025-3.275 7.3-7.3 7.3H38.279c-4.025 0-7.3-3.275-7.3-7.3V15.601c0-4.025 3.275-7.3 7.3-7.3H81.978M81.978 6.066H38.279c-5.266 0-9.535 4.269-9.535 9.535V59.3c0 5.266 4.269 9.535 9.535 9.535h43.699c5.266 0 9.535-4.269 9.535-9.535V15.601C91.512 10.335 87.243 6.066 81.978 6.066L81.978 6.066z" data-fill-palette-color="accent"></path><path fill="#9210a0" d="M74.63 71.069h-2.299l0.225 0.924c0.478 1.957 0.164 3.985-0.884 5.706-1.048 1.722-2.704 2.931-4.661 3.409l-38.573 9.386c-1.953 0.474-3.98 0.164-5.706-0.886-1.722-1.047-2.931-2.704-3.409-4.661l-9.383-38.57c-0.478-1.957-0.161-3.985 0.886-5.706 1.047-1.722 2.704-2.931 4.661-3.409l11.023-2.682V32.28l-11.551 2.809c-2.538 0.618-4.683 2.187-6.043 4.419-1.357 2.23-1.765 4.858-1.148 7.396l9.386 38.57c0.615 2.538 2.184 4.683 4.417 6.043 1.552 0.943 3.293 1.429 5.065 1.429 0.775 0 1.558-0.094 2.331-0.284l38.573-9.386c2.538-0.615 4.683-2.184 6.04-4.417 1.36-2.23 1.765-4.858 1.148-7.396L74.63 71.069z" data-fill-palette-color="accent"></path></svg></g></svg></g></svg></g><defs></defs></svg><rect width="395.52" height="50.37667245473681" fill="none" stroke="none" visibility="hidden"></rect></g></svg></g></svg>