<svg xmlns="http://www.w3.org/2000/svg" version="1.1" xmlns:xlink="http://www.w3.org/1999/xlink" xmlns:svgjs="http://svgjs.dev/svgjs" width="2000" height="323" viewBox="0 0 2000 323"><g transform="matrix(1,0,0,1,-1.2121212121213603,0.4433763113056841)"><svg viewBox="0 0 396 64" data-background-color="none" preserveAspectRatio="xMidYMid meet" height="323" width="2000" xmlns="http://www.w3.org/2000/svg" xmlns:xlink="http://www.w3.org/1999/xlink"><g id="tight-bounds" transform="matrix(1,0,0,1,0.24000000000003752,-0.0878516530141269)"><svg viewBox="0 0 395.5199999999999 64.17570330602827" height="64.17570330602827" width="395.5199999999999"><g><svg viewBox="0 0 488.28033143255624 79.22667293736065" height="64.17570330602827" width="395.5199999999999"><g transform="matrix(1,0,0,1,0,10.94956188931685)"><svg viewBox="0 0 395.52 57.327549158726946" height="57.327549158726946" width="395.52"><g id="textblocktransform"><svg viewBox="0 0 395.52 57.327549158726946" height="57.327549158726946" width="395.52" id="textblock"><g><svg viewBox="0 0 395.52 57.327549158726946" height="57.327549158726946" width="395.52"><g transform="matrix(1,0,0,1,0,0)"><svg width="395.52" viewBox="-0.55 -35.75 247.44 35.75" height="57.327549158726946" data-palette-color="#9210a0"><g class="wordmark-text-0" data-fill-palette-color="primary" id="text-0"><path d="M35.6 0L35.6-22 26.15-2.9 21.5-2.9 12.1-22 12.1 0-0.55 0-0.55-2.15 4.3-2.15 4.3-34.95 14.85-34.95 23.85-15.75 32.9-34.95 43.4-34.95 43.4-2.15 48.25-2.15 48.25 0 35.6 0ZM77.85-2.15L89-2.15 89 0 47.7 0 47.7-2.15 58.85-2.15Q54.75-4.5 52.37-8.6 50-12.7 50-17.7L50-17.7Q50-25.4 55.3-30.58 60.6-35.75 68.35-35.75 76.1-35.75 81.4-30.58 86.7-25.4 86.7-17.7L86.7-17.7Q86.7-12.7 84.3-8.6 81.9-4.5 77.85-2.15L77.85-2.15ZM78.75-17.68Q78.75-22.35 75.75-25.65 72.75-28.95 68.37-28.95 64-28.95 61-25.65 58-22.35 58-17.68 58-13 61-9.73 64-6.45 68.37-6.45 72.75-6.45 75.75-9.73 78.75-13 78.75-17.68ZM110.34-2.15L123.4-2.15 123.4 0 89 0 89-2.15 102-2.15 88.84-34.95 97.3-34.95 106.2-12.7 115.09-34.95 123.55-34.95 110.34-2.15ZM135.49-2.15L139.79-2.15 139.79 0 123.39 0 123.39-2.15 127.69-2.15 127.69-34.95 135.49-34.95 135.49-2.15ZM139.24-2.15L144.09-2.15 144.09-34.95 169.29-34.95 169.29-28 151.89-28 151.89-20.8 167.54-20.8 167.54-14.15 151.89-14.15 151.89-6.9 169.84-6.9 169.84-2.15 174.69-2.15 174.69 0 139.24 0 139.24-2.15ZM199.79-2.15L211.59-2.15 211.59 0 171.94 0 171.94-2.15 176.79-2.15 176.79-34.95 189.14-34.95Q198.49-34.95 203.49-30.38 208.49-25.8 208.49-17.5L208.49-17.5Q208.49-6.3 199.79-2.15L199.79-2.15ZM189.54-6.9Q194.89-6.9 197.76-9.6 200.64-12.3 200.64-17.45 200.64-22.6 197.76-25.38 194.89-28.15 188.94-28.15L188.94-28.15 184.59-28.15 184.59-6.9 189.54-6.9ZM239.89-2.15L246.89-2.15 246.89 0 211.03 0 211.03-2.15 215.89-2.15 215.89-34.95 229.49-34.95Q233.04-34.95 235.61-34.1 238.19-33.25 239.49-31.8L239.49-31.8Q241.84-29.1 241.84-25.7L241.84-25.7Q241.84-21.6 239.19-19.6L239.19-19.6Q238.29-18.9 237.94-18.73 237.59-18.55 236.69-18.15L236.69-18.15Q239.94-17.45 241.86-15.23 243.79-13 243.79-9.7L243.79-9.7Q243.79-4.75 239.89-2.15L239.89-2.15ZM223.69-14.65L223.69-6.6 229.03-6.6Q232.39-6.6 234.06-7.43 235.74-8.25 235.74-10.68 235.74-13.1 233.96-13.88 232.19-14.65 228.28-14.65L228.28-14.65 223.69-14.65ZM223.69-28.35L223.69-20.8 227.39-20.8Q230.64-20.8 232.21-21.5 233.79-22.2 233.79-24.53 233.79-26.85 232.34-27.6 230.89-28.35 227.44-28.35L227.44-28.35 223.69-28.35Z" fill="#9210a0" data-fill-palette-color="primary"></path></g></svg></g></svg></g></svg></g></svg></g><g transform="matrix(1,0,0,1,409.0536584951956,0)"><svg viewBox="0 0 79.22667293736065 79.22667293736065" height="79.22667293736065" width="79.22667293736065"><g><svg xmlns="http://www.w3.org/2000/svg" xmlns:xlink="http://www.w3.org/1999/xlink" version="1.1" x="0" y="0" viewBox="2.2779999999999996 2.2779999999999996 19.444000000000003 19.444000000000003" style="enable-background:new 0 0 24 24;" xml:space="preserve" height="79.22667293736065" width="79.22667293736065" class="icon-icon-0" data-fill-palette-color="accent" id="icon-0"><g fill="#287fb8" data-fill-palette-color="accent"><path d="M5.007 2.278c-1.505 0-2.729 1.224-2.729 2.729v13.986c0 1.505 1.224 2.729 2.729 2.729h13.986c1.505 0 2.729-1.224 2.729-2.729V5.007c0-1.505-1.224-2.729-2.729-2.729H5.007zM6.201 21.04H5.007c-1.129 0-2.047-0.918-2.047-2.047V17.97h3.241V21.04zM6.201 17.287H2.96v-3.07h3.241V17.287zM6.201 13.535H2.96v-3.07h3.241V13.535zM6.201 9.783H2.96v-3.07h3.241V9.783zM6.201 6.03H2.96V5.007c0-1.129 0.918-2.047 2.047-2.047h1.194V6.03zM17.117 21.04H6.883v-8.698h10.234V21.04zM17.117 11.659H6.883V2.96h10.234V11.659zM21.04 18.993c0 1.129-0.918 2.047-2.047 2.047h-1.194v-3.07h3.241V18.993zM21.04 17.287h-3.241v-3.07h3.241V17.287zM21.04 13.535h-3.241v-3.07h3.241V13.535zM21.04 9.783h-3.241v-3.07h3.241V9.783zM21.04 5.007V6.03h-3.241V2.96h1.194C20.122 2.96 21.04 3.878 21.04 5.007z" fill="#287fb8" data-fill-palette-color="accent"></path></g></svg></g></svg></g></svg></g><defs></defs></svg><rect width="395.5199999999999" height="64.17570330602827" fill="none" stroke="none" visibility="hidden"></rect></g></svg></g></svg>